#N canvas 132 94 450 300 10;
#N canvas 77 136 757 538 lpd8 0;
#X text 362 444 Input and mapping for the AKAI LPD8 laptop pad controller
;
#X obj 410 81 ctlin 1 1;
#X obj 410 103 / 127;
#X floatatom 436 125 5 0 0 0 - - -;
#X text 409 65 K1;
#X obj 473 103 / 127;
#X floatatom 499 125 5 0 0 0 - - -;
#X obj 536 103 / 127;
#X floatatom 562 125 5 0 0 0 - - -;
#X obj 599 103 / 127;
#X floatatom 625 125 5 0 0 0 - - -;
#X text 472 65 K2;
#X text 535 65 K3;
#X text 598 65 K4;
#X obj 410 313 / 127;
#X floatatom 436 335 5 0 0 0 - - -;
#X obj 473 313 / 127;
#X floatatom 499 335 5 0 0 0 - - -;
#X obj 536 313 / 127;
#X floatatom 562 335 5 0 0 0 - - -;
#X obj 599 313 / 127;
#X floatatom 625 335 5 0 0 0 - - -;
#X obj 473 81 ctlin 2 1;
#X obj 536 81 ctlin 3 1;
#X obj 599 81 ctlin 4 1;
#X obj 410 291 ctlin 5 1;
#X obj 473 291 ctlin 6 1;
#X obj 536 291 ctlin 7 1;
#X obj 599 291 ctlin 8 1;
#X text 409 275 K5;
#X text 472 275 K6;
#X text 535 275 K7;
#X text 598 275 K8;
#X obj 76 13 notein 1;
#X floatatom 135 36 5 0 0 0 - - -;
#X floatatom 177 36 5 0 0 0 - - -;
#X obj 24 79 pack i i;
#X obj 24 128 route 60 62 64 67 69 71 72 74;
#X floatatom 189 79 5 0 0 0 - - -;
#X text 80 92 pads have velocity but here they are used as toggles
;
#X obj 80 56 expr if ($f1 > 0 \, 1 \, 0);
#X obj 24 172 tgl 15 0 empty empty empty 17 7 0 10 -262144 -1 -1 0
1;
#X text 28 158 P5;
#X obj 165 172 tgl 15 0 empty empty empty 17 7 0 10 -262144 -1 -1 0
1;
#X obj 186 172 tgl 15 0 empty empty empty 17 7 0 10 -262144 -1 -1 0
1;
#X obj 208 172 tgl 15 0 empty empty empty 17 7 0 10 -262144 -1 -1 0
1;
#X obj 229 172 tgl 15 0 empty empty empty 17 7 0 10 -262144 -1 -1 0
1;
#X obj 249 172 tgl 15 0 empty empty empty 17 7 0 10 -262144 -1 -1 0
1;
#X obj 272 172 tgl 15 0 empty empty empty 17 7 0 10 -262144 -1 -1 0
1;
#X obj 293 172 tgl 15 0 empty empty empty 17 7 0 10 -262144 -1 -1 0
1;
#X text 168 158 P6;
#X text 190 158 P7;
#X text 212 158 P8;
#X text 233 158 P1;
#X text 253 158 P2;
#X text 276 158 P3;
#X text 297 158 P4;
#X obj 25 241 s enable_autocomp;
#X obj 598 183 s output_vol;
#X obj 318 383 s center_f;
#X obj 438 415 s Q_fact;
#X obj 318 361 expr (($f1 * $f1) + 0.006) * 14000;
#X obj 438 395 expr ($f1 * $f1) * 20;
#X obj 563 216 s set_mic_gain;
#X text 532 48 in volume;
#X text 598 49 out volume;
#X text 407 259 center F;
#X text 469 258 Q;
#X text 408 51 DMX ch1;
#X text 471 52 DMX ch2;
#X obj 411 151 * 255;
#X obj 411 173 s dmx_ch1;
#X obj 481 174 * 255;
#X obj 481 196 s dmx_ch2;
#X obj 563 194 * 8;
#X obj 598 152 * 4;
#X obj 293 239 s testtone;
#X text 62 338 comment;
#X connect 1 0 2 0;
#X connect 2 0 3 0;
#X connect 2 0 70 0;
#X connect 5 0 6 0;
#X connect 5 0 72 0;
#X connect 7 0 8 0;
#X connect 7 0 74 0;
#X connect 9 0 10 0;
#X connect 9 0 75 0;
#X connect 14 0 15 0;
#X connect 14 0 61 0;
#X connect 16 0 17 0;
#X connect 16 0 62 0;
#X connect 18 0 19 0;
#X connect 20 0 21 0;
#X connect 22 0 5 0;
#X connect 23 0 7 0;
#X connect 24 0 9 0;
#X connect 25 0 14 0;
#X connect 26 0 16 0;
#X connect 27 0 18 0;
#X connect 28 0 20 0;
#X connect 33 0 34 0;
#X connect 33 0 36 0;
#X connect 33 1 35 0;
#X connect 33 1 40 0;
#X connect 36 0 37 0;
#X connect 37 0 41 0;
#X connect 37 1 43 0;
#X connect 37 2 44 0;
#X connect 37 3 45 0;
#X connect 37 4 46 0;
#X connect 37 5 47 0;
#X connect 37 6 48 0;
#X connect 37 7 49 0;
#X connect 40 0 38 0;
#X connect 40 0 36 1;
#X connect 41 0 57 0;
#X connect 49 0 76 0;
#X connect 61 0 59 0;
#X connect 62 0 60 0;
#X connect 70 0 71 0;
#X connect 72 0 73 0;
#X connect 74 0 63 0;
#X connect 75 0 58 0;
#X restore 20 38 pd lpd8;
#N canvas 73 23 995 561 DMX 1;
#X floatatom 128 222 5 0 0 0 - - -;
#X msg 637 331 ports;
#X msg 749 334 close;
#X obj 584 398 route ports;
#X obj 583 428 print ports;
#X msg 590 331 info;
#X obj 175 399 t b f;
#X obj 108 355 + 0.5;
#X obj 108 378 int;
#X floatatom 195 220 5 0 0 0 - - -;
#X obj 175 354 + 0.5;
#X obj 175 377 int;
#X obj 689 283 r init;
#X obj 631 297 loadbang;
#X obj 108 108 vsl 15 128 0 255 0 0 empty empty empty 0 -9 0 10 -262144
-1 -1 12400 1;
#X obj 175 107 vsl 15 128 0 255 0 0 empty empty empty 0 -9 0 10 -262144
-1 -1 2900 1;
#X text 124 201 ch1;
#X text 192 203 ch2;
#X obj 76 68 r dmx_ch1;
#X obj 163 67 r dmx_ch2;
#X text 691 21 This is the ENTTEC protocol. 126 - start bit 0x7E 6
- command to send DMX packet" 3 - number of bytes to send +1 for 0
start code 0 - leave as 0 0 - start byte \$1 - data bytes (can be more
- adjust number of bytes to send as needed 231 - end byte 0xE7;
#X msg 145 493 126 6 7 0 0 \$1 \$2 \$3 \$4 \$5 \$6 231;
#X msg 689 332 open 3;
#X obj 586 371 comport 3 57600;
#X text 114 510 Output DMX values to ch1 \, ch2 \, ch3 \, ch4 \, ch5
\, ch6;
#X obj 146 462 pack f f f f f f;
#X obj 255 399 t b f;
#X floatatom 275 220 5 0 0 0 - - -;
#X obj 255 354 + 0.5;
#X obj 255 377 int;
#X obj 255 107 vsl 15 128 0 255 0 0 empty empty empty 0 -9 0 10 -262144
-1 -1 5700 1;
#X obj 335 400 t b f;
#X floatatom 355 221 5 0 0 0 - - -;
#X obj 335 355 + 0.5;
#X obj 335 378 int;
#X obj 335 108 vsl 15 128 0 255 0 0 empty empty empty 0 -9 0 10 -262144
-1 -1 9700 1;
#X obj 415 399 t b f;
#X floatatom 435 220 5 0 0 0 - - -;
#X obj 415 354 + 0.5;
#X obj 415 377 int;
#X obj 415 107 vsl 15 128 0 255 0 0 empty empty empty 0 -9 0 10 -262144
-1 -1 5300 1;
#X obj 495 400 t b f;
#X floatatom 515 221 5 0 0 0 - - -;
#X obj 495 355 + 0.5;
#X obj 495 378 int;
#X obj 495 108 vsl 15 128 0 255 0 0 empty empty empty 0 -9 0 10 -262144
-1 -1 0 1;
#X obj 243 67 r dmx_ch3;
#X obj 323 68 r dmx_ch4;
#X obj 403 67 r dmx_ch5;
#X obj 483 68 r dmx_ch6;
#X text 272 203 ch3;
#X text 352 204 ch4;
#X text 432 203 ch5;
#X text 512 204 ch6;
#X obj 895 165 print OSC;
#X obj 726 166 unpack f f f f f f;
#X obj 706 194 * 255;
#X obj 744 194 * 255;
#X obj 782 194 * 255;
#X obj 822 193 * 255;
#X obj 861 195 * 255;
#X obj 897 195 * 255;
#X obj 696 230 s dmx_ch1;
#X obj 758 230 s dmx_ch2;
#X obj 819 230 s dmx_ch3;
#X obj 881 230 s dmx_ch4;
#X obj 943 230 s dmx_ch5;
#X obj 1005 230 s dmx_ch6;
#X obj 746 96 dumpOSC 8888;
#X text 567 11 192.168.2.105 My Fixed IP ^^^ People send to this;
#X obj 739 266 nbx 5 14 -1e+37 1e+37 0 0 empty empty empty 0 -8 0 10
-262144 -1 -1 0 256;
#X msg 739 290 set open \$1;
#X floatatom 595 221 5 0 0 0 - - -;
#X obj 575 108 vsl 15 128 0 1 0 0 empty empty empty 0 -9 0 10 -262144
-1 -1 12700 1;
#X text 574 85 Master;
#X obj 575 272 s mas;
#X obj 108 332 * 1;
#X obj 132 249 r mas;
#X obj 175 332 * 1;
#X obj 255 329 * 1;
#X obj 335 329 * 1;
#X obj 415 329 * 1;
#X obj 495 329 * 1;
#X obj 108 305 f;
#X obj 132 275 t b f;
#X obj 199 249 r mas;
#X obj 175 305 f;
#X obj 199 275 t b f;
#X obj 279 249 r mas;
#X obj 255 305 f;
#X obj 279 275 t b f;
#X obj 359 249 r mas;
#X obj 335 305 f;
#X obj 359 275 t b f;
#X obj 439 249 r mas;
#X obj 415 305 f;
#X obj 439 275 t b f;
#X obj 519 249 r mas;
#X obj 495 305 f;
#X obj 519 275 t b f;
#X obj 746 122 route /dmx /dmx-master;
#X text 488 50 house;
#X text 296 35 white light (balloons);
#X connect 1 0 23 0;
#X connect 2 0 23 0;
#X connect 3 0 4 0;
#X connect 5 0 23 0;
#X connect 6 0 25 0;
#X connect 6 1 25 1;
#X connect 7 0 8 0;
#X connect 8 0 0 0;
#X connect 8 0 25 0;
#X connect 10 0 11 0;
#X connect 11 0 9 0;
#X connect 11 0 6 0;
#X connect 12 0 22 0;
#X connect 13 0 5 0;
#X connect 13 0 1 0;
#X connect 14 0 83 0;
#X connect 15 0 86 0;
#X connect 18 0 14 0;
#X connect 19 0 15 0;
#X connect 21 0 23 0;
#X connect 22 0 23 0;
#X connect 23 1 3 0;
#X connect 25 0 21 0;
#X connect 26 0 25 0;
#X connect 26 1 25 2;
#X connect 28 0 29 0;
#X connect 29 0 27 0;
#X connect 29 0 26 0;
#X connect 30 0 89 0;
#X connect 31 0 25 0;
#X connect 31 1 25 3;
#X connect 33 0 34 0;
#X connect 34 0 32 0;
#X connect 34 0 31 0;
#X connect 35 0 92 0;
#X connect 36 0 25 0;
#X connect 36 1 25 4;
#X connect 38 0 39 0;
#X connect 39 0 37 0;
#X connect 39 0 36 0;
#X connect 40 0 95 0;
#X connect 41 0 25 0;
#X connect 41 1 25 5;
#X connect 43 0 44 0;
#X connect 44 0 42 0;
#X connect 44 0 41 0;
#X connect 45 0 98 0;
#X connect 46 0 30 0;
#X connect 47 0 35 0;
#X connect 48 0 40 0;
#X connect 49 0 45 0;
#X connect 55 0 56 0;
#X connect 55 1 57 0;
#X connect 55 2 58 0;
#X connect 55 3 59 0;
#X connect 55 4 60 0;
#X connect 55 5 61 0;
#X connect 56 0 62 0;
#X connect 57 0 63 0;
#X connect 58 0 64 0;
#X connect 59 0 65 0;
#X connect 60 0 66 0;
#X connect 61 0 67 0;
#X connect 68 0 100 0;
#X connect 70 0 71 0;
#X connect 71 0 22 0;
#X connect 73 0 75 0;
#X connect 73 0 72 0;
#X connect 76 0 7 0;
#X connect 77 0 84 0;
#X connect 78 0 10 0;
#X connect 79 0 28 0;
#X connect 80 0 33 0;
#X connect 81 0 38 0;
#X connect 82 0 43 0;
#X connect 83 0 76 0;
#X connect 84 0 83 0;
#X connect 84 1 76 1;
#X connect 85 0 87 0;
#X connect 86 0 78 0;
#X connect 87 0 86 0;
#X connect 87 1 78 1;
#X connect 88 0 90 0;
#X connect 89 0 79 0;
#X connect 90 0 89 0;
#X connect 90 1 79 1;
#X connect 91 0 93 0;
#X connect 92 0 80 0;
#X connect 93 0 92 0;
#X connect 93 1 80 1;
#X connect 94 0 96 0;
#X connect 95 0 81 0;
#X connect 96 0 95 0;
#X connect 96 1 81 1;
#X connect 97 0 99 0;
#X connect 98 0 82 0;
#X connect 99 0 98 0;
#X connect 99 1 82 1;
#X connect 100 0 55 0;
#X connect 100 0 54 0;
#X connect 100 1 73 0;
#X restore 21 14 pd DMX;
