#N canvas 0 22 450 300 10;
#X obj 162 45 inlet;
#X obj 162 196 outlet;
#X obj 189 103 <= 1;
#X obj 162 135 spigot;
#X obj 162 77 t f f;
#X obj 162 163 * 255;
#X connect 0 0 4 0;
#X connect 2 0 3 1;
#X connect 3 0 5 0;
#X connect 4 0 3 0;
#X connect 4 1 2 0;
#X connect 5 0 1 0;
