#N canvas 302 543 450 300 10;
#N canvas 77 136 757 538 lpd8 0;
#X text 362 444 Input and mapping for the AKAI LPD8 laptop pad controller
;
#X obj 410 81 ctlin 1 1;
#X obj 410 103 / 127;
#X floatatom 436 125 5 0 0 0 - - -;
#X text 409 65 K1;
#X obj 473 103 / 127;
#X floatatom 499 125 5 0 0 0 - - -;
#X obj 536 103 / 127;
#X floatatom 562 125 5 0 0 0 - - -;
#X obj 599 103 / 127;
#X floatatom 625 125 5 0 0 0 - - -;
#X text 472 65 K2;
#X text 535 65 K3;
#X text 598 65 K4;
#X obj 410 313 / 127;
#X floatatom 436 335 5 0 0 0 - - -;
#X obj 473 313 / 127;
#X floatatom 499 335 5 0 0 0 - - -;
#X obj 536 313 / 127;
#X floatatom 562 335 5 0 0 0 - - -;
#X obj 599 313 / 127;
#X floatatom 625 335 5 0 0 0 - - -;
#X obj 473 81 ctlin 2 1;
#X obj 536 81 ctlin 3 1;
#X obj 599 81 ctlin 4 1;
#X obj 410 291 ctlin 5 1;
#X obj 473 291 ctlin 6 1;
#X obj 536 291 ctlin 7 1;
#X obj 599 291 ctlin 8 1;
#X text 409 275 K5;
#X text 472 275 K6;
#X text 535 275 K7;
#X text 598 275 K8;
#X obj 76 13 notein 1;
#X floatatom 135 36 5 0 0 0 - - -;
#X floatatom 177 36 5 0 0 0 - - -;
#X obj 24 79 pack i i;
#X obj 24 128 route 60 62 64 67 69 71 72 74;
#X floatatom 189 79 5 0 0 0 - - -;
#X text 80 92 pads have velocity but here they are used as toggles
;
#X obj 80 56 expr if ($f1 > 0 \, 1 \, 0);
#X obj 24 172 tgl 15 0 empty empty empty 17 7 0 10 -262144 -1 -1 0
1;
#X text 28 158 P5;
#X obj 165 172 tgl 15 0 empty empty empty 17 7 0 10 -262144 -1 -1 0
1;
#X obj 186 172 tgl 15 0 empty empty empty 17 7 0 10 -262144 -1 -1 0
1;
#X obj 208 172 tgl 15 0 empty empty empty 17 7 0 10 -262144 -1 -1 0
1;
#X obj 229 172 tgl 15 0 empty empty empty 17 7 0 10 -262144 -1 -1 0
1;
#X obj 249 172 tgl 15 0 empty empty empty 17 7 0 10 -262144 -1 -1 0
1;
#X obj 272 172 tgl 15 0 empty empty empty 17 7 0 10 -262144 -1 -1 0
1;
#X obj 293 172 tgl 15 0 empty empty empty 17 7 0 10 -262144 -1 -1 0
1;
#X text 168 158 P6;
#X text 190 158 P7;
#X text 212 158 P8;
#X text 233 158 P1;
#X text 253 158 P2;
#X text 276 158 P3;
#X text 297 158 P4;
#X obj 25 241 s enable_autocomp;
#X obj 598 183 s output_vol;
#X obj 318 383 s center_f;
#X obj 438 415 s Q_fact;
#X obj 318 361 expr (($f1 * $f1) + 0.006) * 14000;
#X obj 438 395 expr ($f1 * $f1) * 20;
#X obj 563 216 s set_mic_gain;
#X text 532 48 in volume;
#X text 598 49 out volume;
#X text 407 259 center F;
#X text 469 258 Q;
#X text 408 51 DMX ch1;
#X text 471 52 DMX ch2;
#X obj 411 151 * 255;
#X obj 411 173 s dmx_ch1;
#X obj 481 174 * 255;
#X obj 481 196 s dmx_ch2;
#X obj 563 194 * 8;
#X obj 598 152 * 4;
#X obj 293 239 s testtone;
#X text 62 338 comment;
#X connect 1 0 2 0;
#X connect 2 0 3 0;
#X connect 2 0 70 0;
#X connect 5 0 6 0;
#X connect 5 0 72 0;
#X connect 7 0 8 0;
#X connect 7 0 74 0;
#X connect 9 0 10 0;
#X connect 9 0 75 0;
#X connect 14 0 15 0;
#X connect 14 0 61 0;
#X connect 16 0 17 0;
#X connect 16 0 62 0;
#X connect 18 0 19 0;
#X connect 20 0 21 0;
#X connect 22 0 5 0;
#X connect 23 0 7 0;
#X connect 24 0 9 0;
#X connect 25 0 14 0;
#X connect 26 0 16 0;
#X connect 27 0 18 0;
#X connect 28 0 20 0;
#X connect 33 0 34 0;
#X connect 33 0 36 0;
#X connect 33 1 35 0;
#X connect 33 1 40 0;
#X connect 36 0 37 0;
#X connect 37 0 41 0;
#X connect 37 1 43 0;
#X connect 37 2 44 0;
#X connect 37 3 45 0;
#X connect 37 4 46 0;
#X connect 37 5 47 0;
#X connect 37 6 48 0;
#X connect 37 7 49 0;
#X connect 40 0 38 0;
#X connect 40 0 36 1;
#X connect 41 0 57 0;
#X connect 49 0 76 0;
#X connect 61 0 59 0;
#X connect 62 0 60 0;
#X connect 70 0 71 0;
#X connect 72 0 73 0;
#X connect 74 0 63 0;
#X connect 75 0 58 0;
#X restore 20 38 pd lpd8;
#N canvas 27 23 1436 856 DMX 1;
#X floatatom 18 222 5 0 0 0 - - -;
#X msg 102 459 ports;
#X msg 214 462 close;
#X obj 49 526 route ports;
#X obj 48 556 print ports;
#X msg 55 459 info;
#X obj 55 289 t b f;
#X obj -2 245 + 0.5;
#X obj -2 268 int;
#X floatatom 75 220 5 0 0 0 - - -;
#X obj 55 244 + 0.5;
#X obj 55 267 int;
#X obj 154 437 r init;
#X obj 96 425 loadbang;
#X obj -2 108 vsl 15 128 0 255 0 0 empty empty empty 0 -9 0 10 -262144
-1 -1 0 1;
#X obj 55 107 vsl 15 128 0 255 0 0 empty empty empty 0 -9 0 10 -262144
-1 -1 0 1;
#X text 14 201 ch1;
#X text 72 203 ch2;
#X text 385 617 This is the ENTTEC protocol. 126 - start bit 0x7E 6
- command to send DMX packet" 3 - number of bytes to send +1 for 0
start code 0 - leave as 0 0 - start byte \$1 - data bytes (can be more
- adjust number of bytes to send as needed 231 - end byte 0xE7;
#X obj 115 289 t b f;
#X floatatom 135 220 5 0 0 0 - - -;
#X obj 115 244 + 0.5;
#X obj 115 267 int;
#X obj 115 107 vsl 15 128 0 255 0 0 empty empty empty 0 -9 0 10 -262144
-1 -1 0 1;
#X obj 175 290 t b f;
#X floatatom 195 221 5 0 0 0 - - -;
#X obj 175 245 + 0.5;
#X obj 175 268 int;
#X obj 175 108 vsl 15 128 0 255 0 0 empty empty empty 0 -9 0 10 -262144
-1 -1 0 1;
#X obj 235 289 t b f;
#X floatatom 255 220 5 0 0 0 - - -;
#X obj 235 244 + 0.5;
#X obj 235 267 int;
#X obj 235 107 vsl 15 128 0 255 0 0 empty empty empty 0 -9 0 10 -262144
-1 -1 0 1;
#X obj 295 290 t b f;
#X floatatom 315 221 5 0 0 0 - - -;
#X obj 295 245 + 0.5;
#X obj 295 268 int;
#X obj 295 108 vsl 15 128 0 255 0 0 empty empty empty 0 -9 0 10 -262144
-1 -1 0 1;
#X text 132 203 ch3;
#X text 192 204 ch4;
#X text 252 203 ch5;
#X text 312 204 ch6;
#X text 834 586 Output DMX values to ch1 - ch24;
#N canvas 123 239 1296 520 osc_in 1;
#X obj -810 59 print OSC;
#X obj -1088 50 route /dmx;
#X obj -1088 24 dumpOSC 8888;
#X obj -1418 468 s ch1;
#X obj -1381 468 s ch2;
#X obj -1344 468 s ch3;
#X obj -1307 468 s ch4;
#X obj -1270 468 s ch5;
#X obj -1233 468 s ch6;
#X obj -1179 468 s ch7;
#X obj -1139 468 s ch8;
#X obj -1101 468 s ch9;
#X obj -1064 468 s ch10;
#X obj -1022 468 s ch11;
#X obj -980 468 s ch12;
#X obj -930 466 s ch13;
#X obj -887 466 s ch14;
#X obj -844 466 s ch15;
#X obj -802 466 s ch16;
#X obj -760 466 s ch17;
#X obj -718 466 s ch18;
#X obj -669 466 s ch19;
#X obj -626 466 s ch20;
#X obj -584 466 s ch21;
#X obj -541 465 s ch22;
#X obj -498 465 s ch23;
#X obj -455 465 s ch24;
#X obj -524 54 route /dmxch;
#X obj -1403 431 cond;
#X obj -1365 431 cond;
#X obj -1327 431 cond;
#X obj -1287 430 cond;
#X obj -1248 432 cond;
#X obj -1212 432 cond;
#X obj -1169 432 cond;
#X obj -1131 432 cond;
#X obj -1093 432 cond;
#X obj -1053 431 cond;
#X obj -1015 431 cond;
#X obj -977 431 cond;
#X obj -930 430 cond;
#X obj -892 430 cond;
#X obj -854 430 cond;
#X obj -816 430 cond;
#X obj -778 430 cond;
#X obj -738 430 cond;
#X obj -674 430 cond;
#X obj -631 430 cond;
#X obj -593 430 cond;
#X obj -551 430 cond;
#X obj -510 431 cond;
#X obj -468 431 cond;
#X obj -1125 84 unpack f f f f f f f f f f f f f f f f f f f f f f
f f f f f;
#X obj -524 77 route 0 1 2 3 4 5 6 7 8 9 10 11 12 13 14 15 16 17 18
19 20 21 22 23 24 25 26;
#X obj -419 429 cond;
#X obj -378 430 cond;
#X obj -336 430 cond;
#X obj -409 464 s ch25;
#X obj -366 464 s ch26;
#X obj -323 464 s ch27;
#X connect 1 0 52 0;
#X connect 2 0 1 0;
#X connect 2 0 0 0;
#X connect 2 0 27 0;
#X connect 27 0 53 0;
#X connect 28 0 3 0;
#X connect 29 0 4 0;
#X connect 30 0 5 0;
#X connect 31 0 6 0;
#X connect 32 0 7 0;
#X connect 33 0 8 0;
#X connect 34 0 9 0;
#X connect 35 0 10 0;
#X connect 36 0 11 0;
#X connect 37 0 12 0;
#X connect 38 0 13 0;
#X connect 39 0 14 0;
#X connect 40 0 15 0;
#X connect 41 0 16 0;
#X connect 42 0 17 0;
#X connect 43 0 18 0;
#X connect 44 0 19 0;
#X connect 45 0 20 0;
#X connect 46 0 21 0;
#X connect 47 0 22 0;
#X connect 48 0 23 0;
#X connect 49 0 24 0;
#X connect 50 0 25 0;
#X connect 51 0 26 0;
#X connect 52 0 28 0;
#X connect 52 1 29 0;
#X connect 52 2 30 0;
#X connect 52 3 31 0;
#X connect 52 4 32 0;
#X connect 52 5 33 0;
#X connect 52 6 34 0;
#X connect 52 7 35 0;
#X connect 52 8 36 0;
#X connect 52 9 37 0;
#X connect 52 10 38 0;
#X connect 52 11 39 0;
#X connect 52 12 40 0;
#X connect 52 13 41 0;
#X connect 52 14 42 0;
#X connect 52 15 43 0;
#X connect 52 16 44 0;
#X connect 52 17 45 0;
#X connect 52 18 46 0;
#X connect 52 19 47 0;
#X connect 52 20 48 0;
#X connect 52 21 49 0;
#X connect 52 22 50 0;
#X connect 52 23 51 0;
#X connect 52 24 54 0;
#X connect 52 25 55 0;
#X connect 52 26 56 0;
#X connect 53 0 28 0;
#X connect 53 1 29 0;
#X connect 53 2 30 0;
#X connect 53 3 31 0;
#X connect 53 4 32 0;
#X connect 53 5 33 0;
#X connect 53 6 34 0;
#X connect 53 7 35 0;
#X connect 53 8 36 0;
#X connect 53 9 37 0;
#X connect 53 10 38 0;
#X connect 53 11 39 0;
#X connect 53 12 40 0;
#X connect 53 13 41 0;
#X connect 53 14 42 0;
#X connect 53 15 43 0;
#X connect 53 16 44 0;
#X connect 53 17 45 0;
#X connect 53 18 46 0;
#X connect 53 19 47 0;
#X connect 53 20 48 0;
#X connect 53 21 49 0;
#X connect 53 22 50 0;
#X connect 53 23 51 0;
#X connect 53 24 54 0;
#X connect 53 25 55 0;
#X connect 53 26 56 0;
#X connect 54 0 57 0;
#X connect 55 0 58 0;
#X connect 56 0 59 0;
#X restore -1 17 pd osc_in;
#X obj 293 68 r ch6;
#X obj 233 67 r ch5;
#X obj 173 68 r ch4;
#X obj 113 67 r ch3;
#X obj 53 67 r ch2;
#X obj -4 68 r ch1;
#X obj 425 289 t b f;
#X floatatom 445 220 5 0 0 0 - - -;
#X obj 425 244 + 0.5;
#X obj 425 267 int;
#X obj 425 107 vsl 15 128 0 255 0 0 empty empty empty 0 -9 0 10 -262144
-1 -1 0 1;
#X obj 485 289 t b f;
#X floatatom 505 220 5 0 0 0 - - -;
#X obj 485 244 + 0.5;
#X obj 485 267 int;
#X obj 485 107 vsl 15 128 0 255 0 0 empty empty empty 0 -9 0 10 -262144
-1 -1 0 1;
#X obj 545 290 t b f;
#X floatatom 565 221 5 0 0 0 - - -;
#X obj 545 245 + 0.5;
#X obj 545 268 int;
#X obj 545 108 vsl 15 128 0 255 0 0 empty empty empty 0 -9 0 10 -262144
-1 -1 0 1;
#X obj 605 289 t b f;
#X floatatom 625 220 5 0 0 0 - - -;
#X obj 605 244 + 0.5;
#X obj 605 267 int;
#X obj 605 107 vsl 15 128 0 255 0 0 empty empty empty 0 -9 0 10 -262144
-1 -1 0 1;
#X obj 665 290 t b f;
#X floatatom 685 221 5 0 0 0 - - -;
#X obj 665 245 + 0.5;
#X obj 665 268 int;
#X obj 665 108 vsl 15 128 0 255 0 0 empty empty empty 0 -9 0 10 -262144
-1 -1 0 1;
#X obj 367 289 t b f;
#X floatatom 387 220 5 0 0 0 - - -;
#X obj 367 244 + 0.5;
#X obj 367 267 int;
#X obj 367 107 vsl 15 128 0 255 0 0 empty empty empty 0 -9 0 10 -262144
-1 -1 0 1;
#X obj 785 289 t b f;
#X floatatom 805 220 5 0 0 0 - - -;
#X obj 785 244 + 0.5;
#X obj 785 267 int;
#X obj 785 107 vsl 15 128 0 255 0 0 empty empty empty 0 -9 0 10 -262144
-1 -1 0 1;
#X obj 845 289 t b f;
#X floatatom 865 220 5 0 0 0 - - -;
#X obj 845 244 + 0.5;
#X obj 845 267 int;
#X obj 845 107 vsl 15 128 0 255 0 0 empty empty empty 0 -9 0 10 -262144
-1 -1 0 1;
#X obj 905 290 t b f;
#X floatatom 925 221 5 0 0 0 - - -;
#X obj 905 245 + 0.5;
#X obj 905 268 int;
#X obj 905 108 vsl 15 128 0 255 0 0 empty empty empty 0 -9 0 10 -262144
-1 -1 0 1;
#X obj 965 289 t b f;
#X floatatom 985 220 5 0 0 0 - - -;
#X obj 965 244 + 0.5;
#X obj 965 267 int;
#X obj 965 107 vsl 15 128 0 255 0 0 empty empty empty 0 -9 0 10 -262144
-1 -1 0 1;
#X obj 1025 290 t b f;
#X floatatom 1045 221 5 0 0 0 - - -;
#X obj 1025 245 + 0.5;
#X obj 1025 268 int;
#X obj 1025 108 vsl 15 128 0 255 0 0 empty empty empty 0 -9 0 10 -262144
-1 -1 0 1;
#X obj 727 289 t b f;
#X floatatom 747 220 5 0 0 0 - - -;
#X obj 727 244 + 0.5;
#X obj 727 267 int;
#X obj 727 107 vsl 15 128 0 255 0 0 empty empty empty 0 -9 0 10 -262144
-1 -1 0 1;
#X obj 1145 289 t b f;
#X floatatom 1165 220 5 0 0 0 - - -;
#X obj 1145 244 + 0.5;
#X obj 1145 267 int;
#X obj 1145 107 vsl 15 128 0 255 0 0 empty empty empty 0 -9 0 10 -262144
-1 -1 0 1;
#X obj 1205 289 t b f;
#X floatatom 1225 220 5 0 0 0 - - -;
#X obj 1205 244 + 0.5;
#X obj 1205 267 int;
#X obj 1205 107 vsl 15 128 0 255 0 0 empty empty empty 0 -9 0 10 -262144
-1 -1 0 1;
#X obj 1265 290 t b f;
#X floatatom 1285 221 5 0 0 0 - - -;
#X obj 1265 245 + 0.5;
#X obj 1265 268 int;
#X obj 1265 108 vsl 15 128 0 255 0 0 empty empty empty 0 -9 0 10 -262144
-1 -1 0 1;
#X obj 1325 289 t b f;
#X floatatom 1345 220 5 0 0 0 - - -;
#X obj 1325 244 + 0.5;
#X obj 1325 267 int;
#X obj 1325 107 vsl 15 128 0 255 0 0 empty empty empty 0 -9 0 10 -262144
-1 -1 0 1;
#X obj 1385 290 t b f;
#X floatatom 1405 221 5 0 0 0 - - -;
#X obj 1385 245 + 0.5;
#X obj 1385 268 int;
#X obj 1385 108 vsl 15 128 0 255 0 0 empty empty empty 0 -9 0 10 -262144
-1 -1 0 1;
#X obj 1087 289 t b f;
#X floatatom 1107 220 5 0 0 0 - - -;
#X obj 1087 244 + 0.5;
#X obj 1087 267 int;
#X obj 1087 107 vsl 15 128 0 255 0 0 empty empty empty 0 -9 0 10 -262144
-1 -1 0 1;
#X obj 365 67 r ch7;
#X obj 423 67 r ch8;
#X obj 483 67 r ch9;
#X obj 543 68 r ch10;
#X obj 603 67 r ch11;
#X obj 663 68 r ch12;
#X obj 725 67 r ch13;
#X obj 783 67 r ch14;
#X obj 843 67 r ch15;
#X obj 903 68 r ch16;
#X obj 963 67 r ch17;
#X obj 1023 68 r ch18;
#X obj 1085 67 r ch19;
#X obj 1143 67 r ch20;
#X obj 1203 67 r ch21;
#X obj 1263 68 r ch22;
#X obj 1323 67 r ch23;
#X obj 1383 68 r ch24;
#X obj 147 335 bng 15 250 50 0 empty empty empty 17 7 0 10 -262144
-1 -1;
#X obj 367 335 bng 15 250 50 0 empty empty empty 17 7 0 10 -262144
-1 -1;
#X obj 731 335 bng 15 250 50 0 empty empty empty 17 7 0 10 -262144
-1 -1;
#X obj 1091 335 bng 15 250 50 0 empty empty empty 17 7 0 10 -262144
-1 -1;
#X obj 51 499 comport 4 57600;
#X obj 1135 630 t b f;
#X floatatom 1155 561 5 0 0 0 - - -;
#X obj 1135 585 + 0.5;
#X obj 1135 608 int;
#X obj 1135 448 vsl 15 128 0 255 0 0 empty empty empty 0 -9 0 10 -262144
-1 -1 0 1;
#X obj 1195 629 t b f;
#X floatatom 1215 560 5 0 0 0 - - -;
#X obj 1195 584 + 0.5;
#X obj 1195 607 int;
#X obj 1195 447 vsl 15 128 0 255 0 0 empty empty empty 0 -9 0 10 -262144
-1 -1 0 1;
#X obj 1255 630 t b f;
#X floatatom 1275 561 5 0 0 0 - - -;
#X obj 1255 585 + 0.5;
#X obj 1255 608 int;
#X obj 1255 448 vsl 15 128 0 255 0 0 empty empty empty 0 -9 0 10 -262144
-1 -1 0 1;
#X obj 1133 408 r ch25;
#X obj 1193 407 r ch26;
#X obj 1253 408 r ch27;
#X obj 1106 689 bng 15 250 50 0 empty empty empty 17 7 0 10 -262144
-1 -1;
#X obj 456 552 pack f f f f f f f f f f f f f f f f f f f f f f f f
f f f;
#X msg 455 583 126 6 28 0 0 \$1 \$2 \$3 \$4 \$5 \$6 \$7 \$8 \$9 \$10
\$11 \$12 \$13 \$14 \$15 \$16 \$17 \$18 \$19 \$20 \$21 \$22 \$23 \$24
\$25 \$26 \$27 231;
#X msg 154 460 open 3;
#X text 384 203 ch7;
#X text 442 203 ch8;
#X text 502 203 ch9;
#X text 562 204 ch10;
#X text 622 203 ch11;
#X text 682 204 ch12;
#X connect 1 0 163 0;
#X connect 2 0 163 0;
#X connect 3 0 4 0;
#X connect 5 0 163 0;
#X connect 6 0 159 0;
#X connect 6 1 183 1;
#X connect 7 0 8 0;
#X connect 8 0 0 0;
#X connect 8 0 183 0;
#X connect 10 0 11 0;
#X connect 11 0 9 0;
#X connect 11 0 6 0;
#X connect 12 0 185 0;
#X connect 13 0 5 0;
#X connect 13 0 1 0;
#X connect 14 0 7 0;
#X connect 15 0 10 0;
#X connect 19 0 159 0;
#X connect 19 1 183 2;
#X connect 21 0 22 0;
#X connect 22 0 20 0;
#X connect 22 0 19 0;
#X connect 23 0 21 0;
#X connect 24 0 159 0;
#X connect 24 1 183 3;
#X connect 26 0 27 0;
#X connect 27 0 25 0;
#X connect 27 0 24 0;
#X connect 28 0 26 0;
#X connect 29 0 159 0;
#X connect 29 1 183 4;
#X connect 31 0 32 0;
#X connect 32 0 30 0;
#X connect 32 0 29 0;
#X connect 33 0 31 0;
#X connect 34 0 159 0;
#X connect 34 1 183 5;
#X connect 36 0 37 0;
#X connect 37 0 35 0;
#X connect 37 0 34 0;
#X connect 38 0 36 0;
#X connect 45 0 38 0;
#X connect 46 0 33 0;
#X connect 47 0 28 0;
#X connect 48 0 23 0;
#X connect 49 0 15 0;
#X connect 50 0 14 0;
#X connect 51 0 160 0;
#X connect 51 1 183 7;
#X connect 53 0 54 0;
#X connect 54 0 52 0;
#X connect 54 0 51 0;
#X connect 55 0 53 0;
#X connect 56 0 160 0;
#X connect 56 1 183 8;
#X connect 58 0 59 0;
#X connect 59 0 57 0;
#X connect 59 0 56 0;
#X connect 60 0 58 0;
#X connect 61 0 160 0;
#X connect 61 1 183 9;
#X connect 63 0 64 0;
#X connect 64 0 62 0;
#X connect 64 0 61 0;
#X connect 65 0 63 0;
#X connect 66 0 160 0;
#X connect 66 1 183 10;
#X connect 68 0 69 0;
#X connect 69 0 67 0;
#X connect 69 0 66 0;
#X connect 70 0 68 0;
#X connect 71 0 160 0;
#X connect 71 1 183 11;
#X connect 73 0 74 0;
#X connect 74 0 72 0;
#X connect 74 0 71 0;
#X connect 75 0 73 0;
#X connect 76 0 160 0;
#X connect 76 1 183 6;
#X connect 78 0 79 0;
#X connect 79 0 77 0;
#X connect 79 0 76 0;
#X connect 80 0 78 0;
#X connect 81 0 161 0;
#X connect 81 1 183 13;
#X connect 83 0 84 0;
#X connect 84 0 82 0;
#X connect 84 0 81 0;
#X connect 85 0 83 0;
#X connect 86 0 161 0;
#X connect 86 1 183 14;
#X connect 88 0 89 0;
#X connect 89 0 87 0;
#X connect 89 0 86 0;
#X connect 90 0 88 0;
#X connect 91 0 161 0;
#X connect 91 1 183 15;
#X connect 93 0 94 0;
#X connect 94 0 92 0;
#X connect 94 0 91 0;
#X connect 95 0 93 0;
#X connect 96 0 161 0;
#X connect 96 1 183 16;
#X connect 98 0 99 0;
#X connect 99 0 97 0;
#X connect 99 0 96 0;
#X connect 100 0 98 0;
#X connect 101 0 161 0;
#X connect 101 1 183 17;
#X connect 103 0 104 0;
#X connect 104 0 102 0;
#X connect 104 0 101 0;
#X connect 105 0 103 0;
#X connect 106 0 161 0;
#X connect 106 1 183 12;
#X connect 108 0 109 0;
#X connect 109 0 107 0;
#X connect 109 0 106 0;
#X connect 110 0 108 0;
#X connect 111 0 162 0;
#X connect 111 1 183 19;
#X connect 113 0 114 0;
#X connect 114 0 112 0;
#X connect 114 0 111 0;
#X connect 115 0 113 0;
#X connect 116 0 162 0;
#X connect 116 1 183 20;
#X connect 118 0 119 0;
#X connect 119 0 117 0;
#X connect 119 0 116 0;
#X connect 120 0 118 0;
#X connect 121 0 162 0;
#X connect 121 1 183 21;
#X connect 123 0 124 0;
#X connect 124 0 122 0;
#X connect 124 0 121 0;
#X connect 125 0 123 0;
#X connect 126 0 162 0;
#X connect 126 1 183 22;
#X connect 128 0 129 0;
#X connect 129 0 127 0;
#X connect 129 0 126 0;
#X connect 130 0 128 0;
#X connect 131 0 162 0;
#X connect 131 1 183 23;
#X connect 133 0 134 0;
#X connect 134 0 132 0;
#X connect 134 0 131 0;
#X connect 135 0 133 0;
#X connect 136 0 162 0;
#X connect 136 1 183 18;
#X connect 138 0 139 0;
#X connect 139 0 137 0;
#X connect 139 0 136 0;
#X connect 140 0 138 0;
#X connect 141 0 80 0;
#X connect 142 0 55 0;
#X connect 143 0 60 0;
#X connect 144 0 65 0;
#X connect 145 0 70 0;
#X connect 146 0 75 0;
#X connect 147 0 110 0;
#X connect 148 0 85 0;
#X connect 149 0 90 0;
#X connect 150 0 95 0;
#X connect 151 0 100 0;
#X connect 152 0 105 0;
#X connect 153 0 140 0;
#X connect 154 0 115 0;
#X connect 155 0 120 0;
#X connect 156 0 125 0;
#X connect 157 0 130 0;
#X connect 158 0 135 0;
#X connect 159 0 183 0;
#X connect 160 0 159 0;
#X connect 161 0 160 0;
#X connect 162 0 161 0;
#X connect 163 1 3 0;
#X connect 164 0 182 0;
#X connect 164 1 183 24;
#X connect 166 0 167 0;
#X connect 167 0 165 0;
#X connect 167 0 164 0;
#X connect 168 0 166 0;
#X connect 169 0 182 0;
#X connect 169 1 183 25;
#X connect 171 0 172 0;
#X connect 172 0 170 0;
#X connect 172 0 169 0;
#X connect 173 0 171 0;
#X connect 174 0 182 0;
#X connect 174 1 183 26;
#X connect 176 0 177 0;
#X connect 177 0 175 0;
#X connect 177 0 174 0;
#X connect 178 0 176 0;
#X connect 179 0 168 0;
#X connect 180 0 173 0;
#X connect 181 0 178 0;
#X connect 182 0 162 0;
#X connect 183 0 184 0;
#X connect 184 0 163 0;
#X connect 185 0 163 0;
#X restore 21 14 pd DMX;
